<svg width="43" height="61" viewBox="0 0 43 61" fill="none" xmlns="http://www.w3.org/2000/svg">
<path d="M4.59185 7.57498H10.5864C10.5864 7.40347 10.5291 7.08904 10.4143 6.91753C9.86938 6.00281 7.97635 6.14574 6.74302 5.91706C5.28023 5.6598 2.32596 5.17385 2.32596 5.17385L2.06782 5.11668V5.25961C2.18255 6.51734 3.21511 7.51781 4.50581 7.57498H4.59185ZM8.98023 13.635L8.83682 13.2919C8.57868 12.5487 8.54999 11.4053 8.72209 10.6907L5.19418 10.6621L5.22286 10.7765C5.50968 12.1486 6.5996 13.2348 8.00503 13.5206C8.14844 13.5206 8.75077 13.635 8.98023 13.635ZM37.5477 10.6336L34.3066 10.6621C34.4787 11.4625 34.45 12.7488 34.1058 13.4635L34.0485 13.6064L34.6221 13.5492C36.2283 13.4063 37.4903 12.2629 37.8058 10.7479L37.8345 10.6336H37.5477ZM39.3547 8.20385H32.643C32.9585 8.83271 33.6182 9.43299 34.0198 10.0333L34.0771 10.1476H37.1748C37.3469 10.1476 37.5477 10.0904 37.605 10.0904C38.5515 9.91893 39.326 9.2329 39.6128 8.31818V8.20385H39.3547ZM34.6508 16.5792C33.8477 16.5792 33.1019 16.2076 32.3849 15.6359L31.8112 14.9499L28.943 11.6626C28.7423 11.4911 28.5702 11.3196 28.3694 11.1481C26.6198 9.2329 24.4973 7.54639 21.3996 7.54639C18.9903 7.54639 17.1833 8.57545 15.6632 9.94752C15.1469 10.3763 14.688 10.8622 14.2577 11.3196L14.0283 11.5197L10.6151 15.4358L10.5004 15.5787C9.78333 16.179 9.03759 16.5792 8.20581 16.5792H8.17713L8.20581 16.6078H8.17713C8.17713 17.008 8.46395 17.3224 8.83682 17.4082H34.0198C34.364 17.2938 34.6508 16.9508 34.6508 16.5792ZM22.719 50.738C22.174 50.3664 21.543 49.9948 20.9407 49.6232C20.1663 49.1659 19.3632 48.6799 18.5888 48.1654C16.036 49.9948 14.5446 52.1101 14.6593 53.9681C14.8601 57.0267 18.7608 58.3988 18.7608 58.3988C18.7608 58.3988 18.6174 58.313 18.4167 58.1701C18.7322 58.313 18.9329 58.3988 18.9329 58.3988C18.9329 58.3988 16.8965 57.3411 16.7531 54.7971C16.6957 53.6823 17.4702 52.1387 19.0764 50.8524C19.4205 50.5665 19.8221 50.2807 20.2523 50.0234L20.4818 59.971C20.4818 60.5426 20.9407 61 21.5143 61C22.088 61 22.5182 60.5426 22.5182 59.971V59.828L22.719 50.738ZM19.8795 35.6453C19.6787 35.5595 19.5353 35.4452 19.3632 35.3594C19.5353 35.4738 19.7074 35.5595 19.8795 35.6453ZM18.474 34.8735L18.7608 35.0164L18.6748 34.9878C19.0764 35.2165 19.6787 35.5309 19.9081 35.6739L19.9942 35.731C21.1415 36.3885 22.2027 37.0459 23.0345 37.7605C24.3826 38.9039 25.243 40.1617 25.0996 41.6195C25.0422 42.3341 24.4686 43.4489 23.2353 44.5923L23.1779 47.0792L23.264 47.1364C23.2926 47.1649 23.5795 47.365 23.8663 47.5651C26.5624 45.7643 28.8857 43.5061 28.1399 39.6757C27.9965 38.8754 27.6523 38.1322 27.1647 37.3889C26.5337 36.4742 25.6446 35.5881 24.7267 34.7877C23.2926 33.5586 21.6291 32.4724 19.7647 31.329C19.3058 31.0431 18.8182 30.7287 18.3306 30.4428C18.0725 30.2999 17.843 30.1284 17.5849 29.9855C17.0399 29.6425 16.495 29.2994 15.9213 28.9564C8.95155 24.5829 16.7244 22.2104 16.0647 25.3547C16.9252 25.1546 19.2484 23.3824 17.3267 21.2099C16.1795 19.895 12.7663 19.1518 10.3283 21.3529C9.89806 21.753 9.55387 22.1532 9.29573 22.582C7.46007 25.1261 8.3779 28.2704 10.9593 30.5286C11.074 30.6143 11.1888 30.7287 11.3035 30.8144C13.0818 32.2151 15.8066 33.4728 18.388 34.8449L18.474 34.8735ZM19.4779 17.7512L19.5066 17.8655V17.9227L19.8221 30.8716C21.0554 31.6148 22.174 32.3294 23.1779 33.0441L23.2353 31.1289L23.5508 17.8941L23.5795 17.7798H19.4779V17.7512ZM32.8725 21.5815C32.6717 21.41 32.4709 21.2671 32.2702 21.1242C29.8895 19.2948 26.7345 20.038 25.6446 21.2957C24.1531 23.0108 25.3004 24.4972 26.2469 25.1261C26.5624 25.3833 26.9066 25.5548 27.136 25.612L27.1074 25.4405C26.964 24.097 28.4267 23.8969 29.4019 24.4972C30.3484 25.269 30.4632 26.9269 27.05 29.0708C25.874 29.814 24.6981 30.5286 23.5508 31.2432L23.4647 33.3871C23.981 33.7587 24.4973 34.1589 24.9849 34.5876L25.0136 34.6162C27.6236 33.2727 30.3198 32.0436 32.0407 30.5572C34.995 27.9274 35.7981 24.2113 32.8725 21.5815ZM40.6167 5.17385C39.1826 5.40253 37.7198 5.6598 36.2857 5.88847C35.081 6.11715 33.188 6.00281 32.6143 6.88894C32.4996 7.08904 32.4422 7.26055 32.4422 7.46064V7.54639H32.9012H38.4368H38.5516C39.8136 7.48922 40.8174 6.51734 40.9895 5.31678L41.0182 5.0881L40.6167 5.17385ZM11.2461 7.7179C11.2461 8.37535 10.9593 8.97563 10.4717 9.37582L10.1849 9.63309C9.55387 10.2905 9.15232 11.1481 9.15232 12.1485C9.15232 13.0061 9.46782 13.8065 9.95542 14.4068L10.443 14.8927L10.4717 14.9499L13.7128 11.2338L13.6554 10.948C13.6554 10.7765 13.7128 10.6336 13.7988 10.4906C14.2577 9.77601 14.5446 8.91846 14.5446 8.00375C14.5446 6.0314 13.2826 4.31631 11.5043 3.68744L11.2174 3.60169L0.547665 0.0857553L0.346891 0.0285866L0.289528 0.200097C0.117435 0.543115 0.031388 0.9433 0.00270583 1.37207C-0.0546585 2.74414 0.805804 3.94471 2.03914 4.37348L2.18255 4.40206C2.41201 4.45923 2.61278 4.5164 2.87092 4.5164C4.73527 4.83083 9.06627 5.48829 9.52519 5.57404C10.5291 5.80272 11.2461 6.68885 11.2461 7.7179ZM42.7391 0.257266L42.6531 0L31.8112 3.60169L31.5244 3.68744C29.7461 4.31631 28.4841 6.00281 28.4841 8.00375C28.4841 8.91846 28.7423 9.77601 29.2298 10.4906C29.3159 10.605 29.3733 10.7765 29.3733 10.948C29.3733 11.0909 29.3159 11.2338 29.2585 11.3482V11.3768L32.1267 14.664C32.2415 14.8069 32.3562 14.9499 32.4422 15.0642L32.5857 14.8927L33.0733 14.4068C33.5895 13.7779 33.8764 13.0061 33.8764 12.1485C33.8764 11.1767 33.4748 10.2905 32.8438 9.63309L32.557 9.37582C32.0981 8.97563 31.7826 8.37535 31.7826 7.7179C31.7826 6.68885 32.4996 5.8313 33.4748 5.57404C33.9337 5.51687 38.2934 4.83083 40.1291 4.5164C40.3585 4.5164 40.9609 4.3449 40.9609 4.3449C42.1942 3.91612 43.0547 2.71556 42.9973 1.34349C42.9973 0.971887 42.9112 0.600284 42.7391 0.257266ZM19.9655 36.1598V38.1036L20.1089 44.7924C20.826 45.4499 21.7438 46.0787 22.805 46.7934L22.8624 44.2493H22.8911L23.0345 38.2465C22.1453 37.4747 21.0267 36.7887 19.9655 36.1598ZM18.0151 35.1022C16.2368 36.6172 14.9748 38.1893 14.6306 39.9616C13.8849 43.7919 16.2081 46.0787 18.9329 47.9082C20.7112 49.1087 22.6903 50.0806 24.0671 51.1954C24.2391 51.3383 24.4112 51.4813 24.5833 51.6528H24.5546C25.874 52.8533 26.505 54.1968 26.419 55.2259C26.3329 56.7694 25.5585 57.7413 24.9562 58.313C24.7554 58.4274 24.5546 58.5131 24.4112 58.5989C24.2678 58.6846 24.2105 58.7418 24.2105 58.7418C24.2105 58.7418 24.4399 58.656 24.7841 58.4845C24.5546 58.656 24.4112 58.7132 24.4112 58.7132L24.5546 58.656C24.3539 58.799 24.2391 58.8561 24.2391 58.8561C24.2391 58.8561 25.5585 58.3702 26.7345 57.3697C27.6236 56.6551 28.4267 55.6261 28.5128 54.2826C28.6275 52.5389 27.3081 50.5665 25.0136 48.8229C24.8128 48.6799 24.5833 48.537 24.3826 48.3655C24.3252 48.3369 24.0384 48.1082 23.7229 47.9082L23.5795 47.8224C23.35 47.6509 23.1492 47.5366 23.1205 47.508C21.6291 46.5361 20.3957 45.65 19.5066 44.7638C18.474 43.7634 17.8717 42.7915 17.8717 41.7624C17.843 40.5047 18.5601 39.3327 19.6213 38.3037L19.65 35.9597C19.3058 35.7596 18.5888 35.3594 18.2733 35.2165L18.0151 35.1022ZM6.31279 10.1476H8.89418L8.98023 10.0333C9.38178 9.43299 10.0415 8.83271 10.357 8.20385H3.3872L3.41588 8.31818C3.73139 9.31865 4.64922 10.0619 5.73914 10.119L6.31279 10.1476Z" fill="#1B4C9B"/>
</svg>
